<svg width="126" height="24" viewBox="0 0 126 24" fill="none" xmlns="http://www.w3.org/2000/svg">
<g clip-path="url(#clip0_2109_2982)">
<path d="M12 12.75C13.63 12.75 15.07 13.14 16.24 13.65C17.32 14.13 18 15.21 18 16.38V17C18 17.55 17.55 18 17 18H7C6.45 18 6 17.55 6 17V16.39C6 15.21 6.68 14.13 7.76 13.66C8.93 13.14 10.37 12.75 12 12.75ZM4 13C5.1 13 6 12.1 6 11C6 9.9 5.1 9 4 9C2.9 9 2 9.9 2 11C2 12.1 2.9 13 4 13ZM5.13 14.1C4.76 14.04 4.39 14 4 14C3.01 14 2.07 14.21 1.22 14.58C0.48 14.9 0 15.62 0 16.43V17C0 17.55 0.45 18 1 18H4.5V16.39C4.5 15.56 4.73 14.78 5.13 14.1ZM20 13C21.1 13 22 12.1 22 11C22 9.9 21.1 9 20 9C18.9 9 18 9.9 18 11C18 12.1 18.9 13 20 13ZM24 16.43C24 15.62 23.52 14.9 22.78 14.58C21.93 14.21 20.99 14 20 14C19.61 14 19.24 14.04 18.87 14.1C19.27 14.78 19.5 15.56 19.5 16.39V18H23C23.55 18 24 17.55 24 17V16.43ZM12 6C13.66 6 15 7.34 15 9C15 10.66 13.66 12 12 12C10.34 12 9 10.66 9 9C9 7.34 10.34 6 12 6Z" fill="#1A202C"/>
</g>
<path d="M35.0043 6.81818H37.2614L40.2841 14.196H40.4034L43.4261 6.81818H45.6832V17H43.9134V10.005H43.8189L41.005 16.9702H39.6825L36.8686 9.99006H36.7741V17H35.0043V6.81818ZM48.7308 19.8636C48.4856 19.8636 48.2585 19.8438 48.0497 19.804C47.8442 19.7675 47.6802 19.7244 47.5575 19.6747L47.9751 18.2727C48.237 18.349 48.4706 18.3854 48.6761 18.3821C48.8816 18.3788 49.0623 18.3142 49.218 18.1882C49.3771 18.0656 49.5114 17.8601 49.6207 17.5717L49.7749 17.1591L47.0057 9.36364H48.9148L50.6747 15.1307H50.7543L52.5192 9.36364H54.4332L51.3757 17.9247C51.2332 18.3291 51.0443 18.6754 50.8089 18.9638C50.5736 19.2554 50.2853 19.4775 49.9439 19.63C49.6058 19.7857 49.2015 19.8636 48.7308 19.8636ZM59.2308 17V6.81818H65.7536V8.36435H61.0753V11.1286H65.3061V12.6747H61.0753V17H59.2308ZM67.3544 17V9.36364H69.1541V17H67.3544ZM68.2592 8.27983C67.9742 8.27983 67.7289 8.18537 67.5234 7.99645C67.3179 7.80421 67.2152 7.57386 67.2152 7.3054C67.2152 7.03362 67.3179 6.80327 67.5234 6.61435C67.7289 6.42211 67.9742 6.32599 68.2592 6.32599C68.5476 6.32599 68.7929 6.42211 68.995 6.61435C69.2005 6.80327 69.3033 7.03362 69.3033 7.3054C69.3033 7.57386 69.2005 7.80421 68.995 7.99645C68.7929 8.18537 68.5476 8.27983 68.2592 8.27983ZM71.0048 17V9.36364H72.7498V10.6364H72.8294C72.9686 10.1955 73.2072 9.85582 73.5453 9.61719C73.8867 9.37524 74.2761 9.25426 74.7136 9.25426C74.813 9.25426 74.9241 9.25923 75.0467 9.26918C75.1726 9.2758 75.277 9.2874 75.3599 9.30398V10.9595C75.2837 10.933 75.1627 10.9098 74.997 10.8899C74.8346 10.8667 74.6771 10.8551 74.5247 10.8551C74.1966 10.8551 73.9016 10.9264 73.6397 11.0689C73.3812 11.2081 73.1774 11.402 73.0282 11.6506C72.8791 11.8991 72.8045 12.1858 72.8045 12.5107V17H71.0048ZM82.5911 11.3821L80.9505 11.5611C80.9041 11.3954 80.8229 11.2396 80.7069 11.0938C80.5942 10.9479 80.4417 10.8303 80.2495 10.7408C80.0572 10.6513 79.8219 10.6065 79.5435 10.6065C79.169 10.6065 78.8541 10.6877 78.5989 10.8501C78.347 11.0125 78.2227 11.223 78.226 11.4815C78.2227 11.7036 78.3039 11.8842 78.4696 12.0234C78.6387 12.1626 78.9171 12.277 79.3049 12.3665L80.6074 12.6449C81.33 12.8007 81.8669 13.0476 82.2182 13.3857C82.5729 13.7237 82.7518 14.1662 82.7551 14.7131C82.7518 15.1937 82.611 15.6179 82.3326 15.9858C82.0575 16.3504 81.6747 16.6354 81.1841 16.8409C80.6936 17.0464 80.1301 17.1491 79.4938 17.1491C78.5591 17.1491 77.8068 16.9536 77.2367 16.5625C76.6666 16.1681 76.3269 15.6196 76.2175 14.9169L77.9725 14.7479C78.052 15.0926 78.2211 15.3527 78.4796 15.5284C78.7381 15.7041 79.0745 15.7919 79.4888 15.7919C79.9164 15.7919 80.2594 15.7041 80.5179 15.5284C80.7798 15.3527 80.9107 15.1357 80.9107 14.8771C80.9107 14.6584 80.8262 14.4777 80.6571 14.3352C80.4914 14.1927 80.2329 14.0833 79.8816 14.0071L78.579 13.7337C77.8465 13.5812 77.3046 13.3243 76.9533 12.9631C76.602 12.5985 76.428 12.1378 76.4313 11.581C76.428 11.1103 76.5556 10.7027 76.8141 10.358C77.0759 10.0099 77.4389 9.74148 77.9029 9.55256C78.3702 9.36032 78.9088 9.2642 79.5186 9.2642C80.4135 9.2642 81.1178 9.45478 81.6316 9.83594C82.1486 10.2171 82.4685 10.7325 82.5911 11.3821ZM88.0524 9.36364V10.7557H83.6625V9.36364H88.0524ZM84.7463 7.53409H86.546V14.7031C86.546 14.9451 86.5824 15.1307 86.6554 15.2599C86.7316 15.3859 86.831 15.4721 86.9537 15.5185C87.0763 15.5649 87.2122 15.5881 87.3613 15.5881C87.474 15.5881 87.5768 15.5798 87.6696 15.5632C87.7657 15.5466 87.8386 15.5317 87.8883 15.5185L88.1916 16.9254C88.0955 16.9586 87.9579 16.995 87.7789 17.0348C87.6033 17.0746 87.3878 17.0978 87.1326 17.1044C86.6819 17.1177 86.2759 17.0497 85.9146 16.9006C85.5533 16.7481 85.2666 16.5128 85.0545 16.1946C84.8457 15.8764 84.743 15.4787 84.7463 15.0014V7.53409ZM92.6623 8.36435V6.81818H100.786V8.36435H97.6388V17H95.8093V8.36435H92.6623ZM102.272 17V9.36364H104.072V17H102.272ZM103.177 8.27983C102.892 8.27983 102.647 8.18537 102.441 7.99645C102.236 7.80421 102.133 7.57386 102.133 7.3054C102.133 7.03362 102.236 6.80327 102.441 6.61435C102.647 6.42211 102.892 6.32599 103.177 6.32599C103.466 6.32599 103.711 6.42211 103.913 6.61435C104.118 6.80327 104.221 7.03362 104.221 7.3054C104.221 7.57386 104.118 7.80421 103.913 7.99645C103.711 8.18537 103.466 8.27983 103.177 8.27983ZM105.923 17V9.36364H107.643V10.6612H107.732C107.892 10.2237 108.155 9.88234 108.523 9.63707C108.891 9.38849 109.33 9.2642 109.84 9.2642C110.357 9.2642 110.793 9.39015 111.148 9.64205C111.506 9.89062 111.758 10.2304 111.904 10.6612H111.983C112.152 10.237 112.437 9.89891 112.838 9.64702C113.243 9.39181 113.722 9.2642 114.275 9.2642C114.978 9.2642 115.551 9.48627 115.995 9.9304C116.439 10.3745 116.661 11.0225 116.661 11.8743V17H114.857V12.1527C114.857 11.6787 114.731 11.3324 114.479 11.1136C114.227 10.8916 113.919 10.7805 113.554 10.7805C113.12 10.7805 112.78 10.9164 112.535 11.1882C112.293 11.4567 112.172 11.8063 112.172 12.2372V17H110.407V12.0781C110.407 11.6837 110.288 11.3688 110.049 11.1335C109.814 10.8982 109.506 10.7805 109.124 10.7805C108.866 10.7805 108.631 10.8468 108.419 10.9794C108.206 11.1087 108.037 11.2926 107.911 11.5312C107.785 11.7666 107.722 12.0417 107.722 12.3565V17H105.923ZM121.868 17.1491C121.102 17.1491 120.441 16.9901 119.884 16.6719C119.331 16.3504 118.905 15.8963 118.607 15.3097C118.308 14.7197 118.159 14.0253 118.159 13.2266C118.159 12.4411 118.308 11.7517 118.607 11.1584C118.908 10.5618 119.329 10.0978 119.869 9.76633C120.41 9.43158 121.044 9.2642 121.773 9.2642C122.244 9.2642 122.688 9.34044 123.106 9.4929C123.527 9.64205 123.898 9.87405 124.219 10.1889C124.544 10.5038 124.799 10.9048 124.985 11.392C125.171 11.8759 125.263 12.4527 125.263 13.1222V13.674H119.004V12.4609H123.538C123.535 12.1162 123.46 11.8097 123.315 11.5412C123.169 11.2694 122.965 11.0556 122.703 10.8999C122.445 10.7441 122.143 10.6662 121.798 10.6662C121.43 10.6662 121.107 10.7557 120.829 10.9347C120.55 11.1103 120.333 11.3423 120.178 11.6307C120.025 11.9157 119.947 12.2289 119.944 12.5703V13.6293C119.944 14.0734 120.025 14.4545 120.188 14.7727C120.35 15.0876 120.577 15.3295 120.869 15.4986C121.16 15.6643 121.502 15.7472 121.893 15.7472C122.155 15.7472 122.392 15.7107 122.604 15.6378C122.816 15.5616 123 15.4505 123.156 15.3047C123.311 15.1589 123.429 14.9782 123.509 14.7628L125.189 14.9517C125.083 15.3958 124.881 15.7836 124.582 16.1151C124.287 16.4432 123.91 16.6984 123.449 16.8807C122.988 17.0597 122.461 17.1491 121.868 17.1491Z" fill="#1A202C"/>
<defs>
<clipPath id="clip0_2109_2982">
<rect width="24" height="24" fill="white"/>
</clipPath>
</defs>
</svg>
